<mxfile host="app.diagrams.net" modified="2024-07-01T06:45:10.751Z" agent="Mozilla/5.0 (Windows NT 10.0; Win64; x64) AppleWebKit/537.36 (KHTML, like Gecko) Chrome/126.0.0.0 Safari/537.36" version="24.6.4" etag="YBo7Yr_pYsT0LUo-6cmr" type="github">
  <diagram name="페이지-1" id="eFboKEhrj6YrpeN7rXiY">
    <mxGraphModel>
      <root>
        <mxCell id="0" />
        <mxCell id="1" parent="0" />
      </root>
    </mxGraphModel>
  </diagram>
</mxfile>
